<?xml version="1.0" standalone="no"?>
<!DOCTYPE svg PUBLIC "-//W3C//DTD SVG 20010904//EN"
 "http://www.w3.org/TR/2001/REC-SVG-20010904/DTD/svg10.dtd">
<svg version="1.0" xmlns="http://www.w3.org/2000/svg"
 width="500.000000pt" height="500.000000pt" viewBox="0 0 500.000000 500.000000"
 preserveAspectRatio="xMidYMid meet">

<g transform="translate(0.000000,500.000000) scale(0.100000,-0.100000)"
fill="#000000" stroke="none">
<path d="M2298 4839 c-402 -55 -746 -230 -1023 -521 -220 -231 -366 -511 -436
-838 -20 -91 -23 -134 -23 -325 0 -191 3 -234 22 -324 78 -358 230 -638 479
-883 143 -141 227 -203 383 -286 320 -170 662 -233 1017 -187 192 26 333 67
509 150 500 235 856 705 949 1249 20 118 20 429 0 551 -58 355 -222 673 -478
929 -248 247 -560 409 -912 472 -106 19 -390 27 -487 13z m162 -53 c0 -2 -55
-34 -122 -71 -68 -37 -142 -81 -165 -96 -23 -16 -47 -29 -53 -29 -22 0 -92 42
-84 50 13 13 184 77 309 115 126 39 115 36 115 31z m-285 -65 c-71 -26 -140
-53 -151 -59 -18 -9 -25 -8 -39 8 -10 11 -16 22 -14 24 8 7 174 55 224 64 112
21 106 10 -20 -37z m345 5 c0 -36 -5 -47 -26 -61 -14 -9 -27 -15 -29 -13 -4 4
46 118 51 118 2 0 4 -20 4 -44z m59 2 c29 -39 30 -44 15 -55 -9 -6 -17 -25
-18 -41 -1 -16 -7 -36 -14 -44 -9 -11 -10 -23 -2 -42 8 -23 7 -26 -10 -26 -27
0 -27 47 2 101 20 39 20 43 5 54 -11 8 -17 26 -17 54 0 22 2 41 4 41 2 0 18
-19 35 -42z m133 6 c51 -19 133 -56 182 -82 l88 -47 -31 -12 c-32 -14 -81 -8
-81 8 0 5 -12 15 -27 21 -16 7 -47 25 -70 40 -23 15 -45 28 -49 28 -8 0 -114
71 -114 77 0 6 7 3 102 -33z m117 21 c85 -17 229 -61 246 -76 15 -14 -28 -11
-76 7 -24 8 -98 31 -164 49 -131 37 -133 44 -6 20z m-450 -82 c-46 -49 -81
-77 -92 -76 -10 2 -35 -5 -55 -15 -35 -18 -72 -19 -72 -3 0 10 272 170 289
171 2 0 -29 -35 -70 -77z m266 43 c20 -15 20 -15 -2 -10 -12 4 -30 15 -40 26
-18 20 -17 21 2 10 11 -6 29 -17 40 -26z m-200 -46 c-29 -58 -39 -70 -60 -70
-16 0 -25 -6 -25 -15 0 -8 9 -15 20 -15 18 0 19 -3 9 -22 -8 -14 -14 -18 -17
-10 -4 14 -32 16 -32 2 0 -5 -4 -10 -10 -10 -5 0 -10 12 -10 27 0 21 19 46 77
105 43 43 79 78 80 78 2 0 -13 -31 -32 -70z m584 -15 c12 -5 12 -8 -2 -22 -15
-16 -23 -13 -112 32 -52 27 -95 50 -95 51 0 2 183 -52 209 -61z m-1066 12 c15
-23 15 -24 -120 -92 -74 -37 -176 -95 -226 -127 -84 -56 -92 -59 -104 -42 -7
10 -13 21 -13 25 0 16 156 126 166 117 2 -3 -7 -19 -21 -36 -33 -40 -32 -52 3
-20 15 14 35 28 46 32 22 8 64 39 119 90 36 32 108 75 128 76 4 0 14 -10 22
-23z m1209 -23 c49 -25 39 -32 -17 -11 -30 11 -55 24 -55 29 0 10 31 2 72 -18z
m1 -41 c37 -13 85 -36 105 -49 41 -28 111 -103 112 -120 0 -23 41 -63 70 -69
38 -8 38 -17 -1 -49 l-31 -26 -66 61 c-78 72 -193 161 -276 214 l-60 38 24 19
c13 11 30 16 39 13 9 -4 47 -18 84 -32z m-1084 -33 c0 -3 -33 -28 -74 -57
l-74 -51 -17 44 c-9 25 -24 49 -33 55 -9 6 -11 12 -6 15 6 2 33 15 60 28 l50
23 47 -26 c26 -14 48 -28 47 -31z m1007 -38 c127 -84 304 -232 304 -255 0 -9
-132 -73 -171 -82 -22 -6 -33 3 -95 81 -38 48 -80 100 -92 116 -19 22 -21 32
-13 42 13 15 -3 37 -39 56 -10 5 -28 24 -40 40 l-22 30 34 15 c18 8 36 14 39
15 4 0 47 -26 95 -58z m-816 33 c-7 -8 -17 -15 -22 -15 -6 0 -5 7 2 15 7 8 17
15 22 15 6 0 5 -7 -2 -15z m155 -18 c-20 -11 -27 -5 -19 17 5 13 9 14 21 5 12
-11 12 -14 -2 -22z m-243 -5 l46 -17 -20 -25 -21 -25 7 28 c5 23 3 27 -14 27
-29 0 -71 -23 -95 -51 -11 -13 -16 -21 -11 -17 15 13 36 -13 31 -38 -3 -13 -7
-35 -10 -49 -3 -14 -10 -23 -14 -20 -5 3 -7 13 -4 23 2 10 -5 26 -16 36 -12
11 -21 26 -21 34 0 11 -8 13 -35 9 -19 -3 -35 -3 -35 1 0 11 134 101 150 101
8 0 36 -8 62 -17z m443 -12 c3 -6 -4 -10 -17 -10 -18 0 -20 2 -8 10 19 12 18
12 25 0z m-142 -7 c-13 -2 -33 -2 -45 0 -13 2 -3 4 22 4 25 0 35 -2 23 -4z
m-164 -14 c17 -6 31 -14 31 -18 0 -4 -16 -43 -34 -87 -39 -87 -48 -92 -113
-54 -19 11 -35 15 -38 9 -8 -11 -45 -12 -45 0 0 5 14 14 31 21 24 10 36 11 50
2 21 -14 59 -16 59 -4 0 4 -5 13 -12 20 -7 7 -11 28 -10 47 2 23 -2 35 -10 35
-16 1 30 40 47 40 6 0 26 -5 44 -11z m138 -24 c7 -2 15 0 18 5 10 16 25 11 25
-8 0 -15 -6 -18 -30 -14 -59 9 -107 -50 -69 -84 22 -20 24 -45 7 -62 -17 -17
-28 -15 -28 6 0 9 -8 22 -18 29 -24 14 -18 70 10 97 11 10 17 24 14 32 -4 10
2 12 27 8 18 -3 37 -7 44 -9z m227 -10 c14 -13 26 -31 26 -40 0 -8 9 -15 19
-15 17 0 19 -5 14 -36 -6 -36 -5 -37 20 -30 25 6 26 5 20 -24 -5 -26 0 -37 25
-63 26 -26 79 -144 70 -153 -2 -1 -39 -6 -83 -12 -55 -8 -82 -8 -86 0 -4 7 -9
7 -13 -1 -4 -6 -21 -11 -37 -11 -21 0 -32 6 -38 23 -13 34 -95 68 -105 43 -2
-6 -5 -1 -5 10 -1 12 5 27 13 33 11 10 22 6 50 -19 29 -26 41 -31 66 -25 36 8
38 18 8 33 -22 10 -21 11 10 11 40 1 41 11 2 33 -31 18 -40 38 -17 38 7 0 18
-5 25 -12 9 -9 12 -7 12 10 0 15 -9 26 -24 32 -28 10 -56 47 -56 72 0 10 -18
29 -40 43 -32 20 -40 31 -40 55 l0 30 69 0 c58 0 72 -3 95 -25z m-1196 -79
c10 -22 5 -27 -56 -72 -37 -27 -120 -101 -184 -165 -65 -64 -118 -113 -118
-110 0 33 307 371 337 371 5 0 15 -11 21 -24z m1629 -144 c31 -40 54 -74 52
-76 -8 -6 -174 -46 -220 -52 -45 -6 -46 -6 -58 26 -6 18 -10 35 -8 36 2 2 21
-5 42 -16 22 -11 48 -20 58 -20 17 0 19 5 13 41 -4 23 -13 54 -21 69 -13 25
-12 29 6 46 11 10 17 24 15 31 -3 7 -3 20 1 29 7 20 44 -14 120 -114z m-627 1
c0 -165 0 -163 -70 -163 -31 0 -85 3 -119 6 -49 6 -61 10 -61 25 0 19 44 59
65 59 7 0 15 7 19 15 3 8 12 15 20 15 7 0 21 11 30 25 9 14 24 25 34 25 37 0
56 25 54 69 -2 31 1 41 13 41 13 0 15 -18 15 -117z m-966 92 c6 -17 -24 -40
-66 -50 -16 -4 -28 -11 -28 -16 0 -14 41 -11 91 7 l46 17 45 -31 45 -31 -94
-98 c-87 -90 -176 -195 -229 -267 -20 -28 -22 -29 -44 -13 -35 25 -107 95
-130 128 l-21 29 93 96 c82 85 262 242 279 243 4 1 9 -6 13 -14z m1006 2 c0
-7 9 -20 20 -29 17 -15 18 -21 7 -46 -7 -16 -15 -30 -19 -31 -24 -4 -28 4 -28
59 0 33 4 60 10 60 6 0 10 -6 10 -13z m1051 -24 c32 -19 40 -37 64 -146 14
-63 15 -82 5 -106 -15 -38 -9 -48 40 -56 22 -4 50 -15 62 -26 l23 -19 -28 -25
c-15 -14 -32 -25 -37 -25 -5 0 -30 31 -55 68 l-45 69 16 53 c18 61 15 67 -55
94 -25 10 -60 30 -78 46 -21 19 -39 27 -50 23 -10 -3 0 10 22 30 45 40 73 45
116 20z m-1981 -3 c0 -5 -5 -10 -11 -10 -5 0 -7 5 -4 10 3 6 8 10 11 10 2 0 4
-4 4 -10z m56 -47 c-2 -2 -13 1 -24 8 -19 12 -19 14 -4 25 14 10 18 9 25 -8 4
-12 6 -23 3 -25z m1803 -62 c23 -27 41 -53 41 -59 0 -23 31 -67 47 -67 20 0
136 -162 129 -180 -2 -5 3 -23 11 -38 8 -16 13 -30 11 -31 -44 -29 -77 -45
-152 -76 l-90 -38 -70 141 c-39 78 -94 178 -123 222 l-52 80 97 47 c53 25 100
47 104 47 3 1 25 -21 47 -48z m-1790 -62 c-6 -35 -17 -89 -25 -119 -8 -33 -11
-77 -8 -110 5 -49 3 -62 -29 -120 -29 -54 -39 -65 -58 -62 -36 4 -209 89 -209
103 0 29 322 391 335 377 2 -2 0 -33 -6 -69z m1871 31 c18 -1 62 -67 58 -88
-2 -8 -23 11 -52 49 -27 35 -43 58 -35 52 7 -7 20 -13 29 -13z m-282 -125 c59
-95 153 -275 166 -321 6 -19 -1 -23 -66 -43 -105 -31 -320 -73 -328 -64 -4 4
-17 59 -29 121 -19 98 -68 286 -86 333 -5 13 7 18 62 28 37 7 95 21 128 31 33
10 67 17 75 16 8 -1 43 -46 78 -101z m-336 -65 c44 -153 44 -147 8 -142 -22 3
-30 10 -30 24 0 36 -23 13 -35 -35 -14 -54 -3 -64 53 -48 20 6 32 6 32 0 0 -5
6 -9 14 -9 16 0 44 -146 30 -160 -5 -4 -70 -13 -144 -19 -235 -20 -235 -20
-218 -7 8 6 18 23 21 37 4 16 22 37 44 50 21 13 44 28 52 33 10 6 9 2 -2 -15
-19 -26 -22 -49 -7 -49 15 0 80 61 80 75 0 7 -12 16 -26 19 -15 4 -32 13 -40
21 -11 11 -11 15 1 25 23 19 18 30 -15 30 -18 0 -33 -7 -39 -19 -10 -18 -51
-36 -51 -22 0 4 13 20 29 35 23 22 41 29 91 33 58 6 63 8 88 45 l26 40 -25 20
c-13 10 -41 27 -62 37 -36 17 -74 67 -62 80 8 7 94 19 130 17 28 -1 30 -4 57
-96z m-529 80 l88 0 -3 -90 c-4 -92 -17 -125 -39 -103 -7 7 -15 29 -18 50 -5
32 -11 40 -40 49 -19 6 -39 18 -45 26 -6 8 -26 22 -43 32 -39 19 -46 52 -10
42 12 -3 62 -6 110 -6z m127 -75 c0 -13 -4 -27 -10 -30 -6 -4 -10 8 -10 30 0
22 4 34 10 30 6 -3 10 -17 10 -30z m1351 15 c16 0 10 -18 -15 -47 l-24 -28
-11 29 c-13 32 2 61 26 51 8 -3 19 -5 24 -5z m-2588 -167 c17 -9 15 -15 -23
-74 -44 -69 -149 -272 -168 -327 l-12 -34 -38 30 c-60 48 -122 120 -122 141 0
20 46 157 77 229 10 23 42 74 72 115 l53 73 72 -72 c39 -39 79 -76 89 -81z
m2658 65 c29 -57 29 -60 10 -55 -21 5 -61 -32 -61 -58 0 -6 -18 -30 -40 -53
-37 -37 -41 -39 -50 -22 -16 30 -12 40 19 40 47 0 54 19 30 84 l-22 56 34 38
c19 21 37 37 42 35 4 -3 21 -32 38 -65z m-2473 -163 l77 -32 5 -94 c5 -91 4
-97 -31 -179 -20 -47 -45 -111 -55 -143 -9 -31 -23 -57 -29 -57 -40 0 -335
142 -335 162 0 32 126 279 192 376 l29 43 35 -22 c20 -12 70 -36 112 -54z
m2273 47 c39 -77 68 -142 85 -189 18 -51 18 -52 -4 -115 -12 -35 -22 -87 -22
-115 0 -60 -1 -61 -133 -112 l-74 -28 -22 106 c-13 58 -40 160 -61 226 -22 66
-40 125 -40 130 0 6 34 24 77 41 43 18 98 44 123 58 25 14 48 26 51 26 3 0 12
-13 20 -28z m-1401 -21 c16 -16 26 -31 23 -35 -12 -11 -48 -6 -71 10 -13 9
-29 13 -37 10 -8 -3 -17 -1 -20 4 -4 6 2 10 12 10 11 0 28 7 39 15 25 19 21
19 54 -14z m1143 -193 c42 -131 90 -326 83 -343 -8 -21 -287 -91 -439 -110
l-54 -7 -7 124 c-4 67 -14 174 -21 237 -8 63 -14 116 -12 117 1 0 62 13 134
28 73 15 159 35 190 45 91 30 86 34 126 -91z m-469 -20 c10 -58 25 -210 32
-329 l7 -116 -54 -7 c-201 -24 -482 -34 -508 -17 -18 12 -5 309 15 329 8 7 14
25 14 39 0 14 11 35 23 47 13 12 28 29 33 38 7 12 44 18 179 28 94 6 172 14
174 16 2 2 21 4 42 4 34 0 37 -3 43 -32z m-1966 -150 l23 -15 -30 -107 c-32
-115 -61 -283 -61 -362 l-1 -49 -54 57 c-48 51 -54 63 -61 115 -12 102 16 443
41 483 3 4 30 -18 62 -50 32 -31 68 -64 81 -72z m546 86 c3 -9 6 -33 6 -54 0
-21 5 -42 10 -45 6 -3 10 -24 10 -46 0 -25 5 -42 14 -45 8 -3 17 -23 21 -44 7
-41 29 -79 40 -69 3 4 -1 29 -9 55 -9 27 -22 77 -30 111 -12 52 -12 62 0 67
18 7 27 -9 19 -34 -4 -12 1 -33 13 -53 11 -17 38 -67 60 -109 33 -63 37 -78
24 -78 -19 0 -195 43 -262 64 -52 16 -52 12 -5 134 64 168 74 184 89 146z
m872 -191 c-3 -42 -6 -107 -6 -146 l0 -69 -25 16 c-35 23 -90 21 -109 -5 -14
-21 -14 -21 -169 -5 -85 9 -160 16 -166 16 -19 0 -13 75 8 94 11 10 17 25 14
36 -4 15 5 24 41 42 40 19 50 20 79 10 44 -16 76 -15 83 2 5 14 70 12 89 -4 5
-4 21 -10 35 -12 19 -2 26 -10 28 -32 4 -35 29 -76 47 -76 21 0 24 25 10 66
-20 57 -18 94 7 121 36 38 41 29 34 -54z m-1275 18 c52 -27 127 -61 167 -76
75 -29 82 -38 63 -87 -19 -52 -51 -232 -62 -349 -5 -68 -12 -125 -13 -126 -8
-8 -183 74 -257 120 l-84 53 -3 48 c-7 101 65 466 91 466 2 0 46 -22 98 -49z
m2619 -44 c0 -8 13 -34 30 -58 17 -25 30 -57 30 -74 -1 -37 59 -153 82 -160
12 -5 18 -24 23 -80 4 -40 4 -78 1 -84 -15 -24 -188 -109 -320 -157 l-38 -14
6 83 c6 74 -4 306 -20 433 l-6 50 40 12 c22 7 64 23 93 36 62 29 79 31 79 13z
m-2177 -117 c123 -31 153 -42 155 -57 8 -52 14 -61 58 -84 l46 -24 -6 -55
c-15 -129 -25 -269 -26 -329 l0 -63 -37 6 c-103 19 -278 61 -361 88 l-93 29 6
87 c9 118 31 260 56 356 23 91 27 99 40 90 6 -3 79 -23 162 -44z m1952 -12
c12 -93 22 -330 17 -420 l-4 -86 -79 -22 c-175 -47 -224 -54 -273 -40 -25 7
-43 16 -41 20 8 12 -14 62 -37 87 -12 13 -39 25 -65 29 l-45 7 6 36 c3 20 6
102 6 183 0 145 0 148 23 152 12 3 82 17 156 31 74 15 169 37 210 50 116 35
117 34 126 -27z m-1165 -58 c11 -7 -1 -10 -40 -10 -39 0 -51 3 -40 10 8 5 26
10 40 10 14 0 32 -5 40 -10z m-298 -16 c66 -6 66 -7 56 -30 -14 -30 -39 -38
-93 -29 -34 5 -49 14 -71 42 l-27 36 34 -6 c19 -3 64 -9 101 -13z m927 -131
c0 -82 -3 -165 -7 -186 l-7 -39 -26 20 c-14 12 -38 24 -54 28 -16 4 -37 14
-47 23 -12 10 -41 16 -91 17 -39 1 -85 3 -102 5 -23 3 -32 -1 -40 -18 -14 -32
-25 -29 -25 7 l0 30 -44 -22 c-24 -13 -52 -35 -61 -50 -19 -32 -33 -36 -41
-10 -3 9 -10 25 -15 34 -5 10 -9 58 -9 108 l0 91 26 -3 c15 -2 29 3 31 10 3 8
-6 12 -26 12 -24 0 -31 4 -31 20 0 17 5 19 33 13 17 -3 34 -7 36 -9 2 -2 13 2
24 7 14 8 16 13 8 18 -7 5 66 11 161 15 95 4 196 11 223 16 94 14 85 28 84
-137z m-589 -27 c0 -122 -2 -145 -16 -150 -28 -11 -51 -6 -79 16 -24 19 -27
26 -22 64 6 58 -29 94 -91 94 -23 0 -42 2 -42 5 0 2 9 29 21 60 l20 55 105 0
104 0 0 -144z m1655 48 c-5 -38 -14 -50 -57 -85 -28 -22 -52 -38 -53 -37 -1 2
-5 31 -9 64 -7 60 -6 61 16 57 17 -3 34 7 63 37 45 46 52 40 40 -36z m-2144
-4 c28 -11 66 -19 85 -18 27 2 41 -5 72 -35 21 -20 47 -37 58 -37 31 0 64 -28
81 -71 11 -30 21 -39 38 -39 13 0 25 -5 27 -11 2 -6 20 -17 41 -24 30 -10 39
-10 48 1 24 29 36 14 42 -53 6 -57 4 -70 -12 -88 -10 -11 -23 -33 -28 -50
l-10 -30 -134 1 c-74 1 -194 9 -266 19 l-133 18 0 51 c1 105 27 386 36 386 2
0 26 -9 55 -20z m-992 -160 c2 -69 26 -255 41 -310 19 -71 4 -55 -35 37 -38
92 -88 267 -103 366 l-9 57 52 -47 c51 -46 53 -50 54 -103z m3116 43 c-8 -56
-56 -224 -78 -273 -15 -34 -15 -31 -16 100 l-1 135 47 42 c27 23 50 42 52 43
2 0 0 -21 -4 -47z m-2976 -84 c35 -21 100 -52 145 -70 44 -18 84 -37 88 -43 4
-6 8 -34 8 -63 0 -68 32 -229 63 -323 14 -41 24 -76 23 -77 -6 -7 -229 93
-295 132 -77 47 -79 49 -95 104 -22 81 -44 215 -52 322 l-7 93 29 -19 c16 -10
58 -36 93 -56z m2861 -123 l0 -154 -42 -83 c-41 -79 -46 -84 -108 -116 -70
-35 -270 -116 -275 -111 -2 2 5 46 16 98 10 52 25 154 34 225 9 72 19 133 23
136 4 3 50 22 102 42 52 21 127 55 165 77 39 21 73 39 78 40 4 0 7 -69 7 -154z
m-1480 24 c0 -22 -2 -40 -4 -40 -2 0 -6 18 -8 40 -2 22 0 40 4 40 5 0 8 -18 8
-40z m-1059 -35 c65 -23 306 -83 366 -91 l51 -6 7 -92 c7 -97 29 -256 45 -321
5 -22 8 -41 6 -42 -9 -10 -389 78 -428 98 -47 25 -141 469 -99 469 5 0 28 -7
52 -15z m2154 -42 c-2 -21 -9 -76 -15 -123 -11 -84 -49 -292 -54 -298 -8 -7
-140 -41 -145 -37 -2 3 5 15 16 28 34 36 46 68 47 123 1 45 7 58 46 108 80
101 83 119 23 152 -27 14 -53 18 -102 17 -77 -2 -77 -2 54 36 137 39 136 39
130 -6z m-1504 -88 c79 -8 181 -15 227 -15 76 0 83 -2 91 -22 6 -16 4 -28 -5
-39 -26 -29 -17 -56 26 -80 45 -25 47 -32 53 -208 l4 -104 -171 6 c-94 3 -215
11 -269 18 -91 11 -100 14 -108 38 -15 39 -46 236 -53 340 l-7 93 34 -6 c18
-3 98 -13 178 -21z m-933 -211 c59 -34 266 -124 288 -124 7 0 31 -38 53 -84
23 -46 62 -114 87 -151 25 -37 43 -69 41 -72 -3 -2 -46 8 -97 24 -89 27 -96
31 -174 108 -45 44 -107 112 -138 150 -55 70 -133 185 -124 185 3 0 31 -16 64
-36z m1361 -42 c14 -51 58 -90 117 -105 l49 -12 3 -47 3 -48 -43 -2 c-24 -1
-64 -3 -89 -3 l-47 -1 -6 44 c-7 52 -8 212 -1 212 2 0 9 -17 14 -38z m1334 7
c-76 -130 -351 -404 -378 -377 -2 2 14 63 34 137 l38 133 109 42 c60 23 132
54 159 69 28 14 51 26 53 27 2 0 -5 -14 -15 -31z m-2313 -119 c61 -18 283 -68
336 -75 l51 -6 17 -57 c10 -31 38 -99 61 -150 l44 -93 -37 7 c-72 13 -287 63
-314 73 -14 5 -47 39 -72 74 -53 74 -142 237 -129 237 4 0 24 -5 43 -10z
m1961 -76 c-12 -44 -29 -106 -39 -138 l-18 -59 -64 -19 c-163 -47 -465 -106
-477 -94 -4 3 1 6 9 6 8 0 27 10 42 21 l27 21 -22 24 c-12 13 -18 24 -12 24 6
0 13 -5 15 -11 3 -8 17 -10 43 -5 30 6 53 21 90 60 28 28 63 60 78 70 22 13
26 20 17 30 -31 38 34 77 205 121 66 17 121 30 123 29 2 -1 -6 -37 -17 -80z
m-1317 -34 c61 -6 153 -10 204 -10 65 0 94 -4 97 -12 2 -7 10 -73 18 -147 11
-113 11 -134 -1 -139 -17 -6 -177 4 -320 19 l-103 12 -41 81 c-22 45 -51 112
-64 150 l-24 69 61 -7 c34 -4 111 -11 173 -16z m503 -27 c-3 -10 -9 -43 -12
-73 -4 -30 -13 -64 -20 -76 -8 -12 -21 -47 -30 -78 -16 -54 -18 -56 -51 -56
-27 0 -35 4 -38 23 -9 42 -26 258 -22 266 3 5 44 9 92 10 78 2 85 1 81 -16z
m-1084 -161 c51 -15 66 -25 115 -82 l57 -64 -60 33 c-33 19 -93 56 -132 83
-71 47 -91 67 -56 54 9 -4 44 -15 76 -24z m1827 -13 c-38 -32 -187 -118 -268
-155 -67 -31 -216 -82 -285 -98 -26 -6 -28 -5 -21 16 4 13 13 45 20 72 7 27
17 52 21 56 4 4 58 15 118 24 103 16 412 90 423 101 3 3 8 5 11 5 3 -1 -5 -10
-19 -21z m-1519 -62 l157 -31 26 -42 c14 -23 45 -62 67 -88 22 -25 36 -46 31
-46 -25 0 -212 53 -283 81 -77 30 -135 77 -187 150 -15 21 -14 22 9 15 13 -4
94 -21 180 -39z m344 -52 c83 -8 175 -15 206 -15 64 0 59 8 75 -119 l7 -54
-119 6 c-192 11 -185 8 -259 100 -56 70 -74 97 -62 97 1 0 70 -7 152 -15z
m611 -12 c-3 -10 -14 -45 -23 -77 -21 -67 -22 -68 -133 -80 l-65 -8 28 22 c15
12 35 36 44 53 9 18 24 38 34 45 11 7 19 20 19 28 0 14 10 18 42 15 9 -1 19 3
23 9 11 18 37 12 31 -7z m-268 -50 c-5 -27 -6 -65 -2 -86 5 -34 4 -38 -12 -35
-14 2 -21 19 -31 73 -17 98 -17 95 21 95 l33 0 -9 -47z"/>
<path d="M3166 4384 c-3 -9 -13 -14 -21 -10 -22 8 -29 -13 -10 -34 27 -30 72
-45 90 -30 26 22 18 57 -17 74 -38 19 -35 19 -42 0z"/>
<path d="M2308 4466 c-10 -7 -18 -21 -18 -30 0 -30 34 -14 42 22 7 25 1 27
-24 8z"/>
<path d="M2394 4219 c-8 -14 15 -59 31 -59 7 0 18 7 25 15 10 13 10 19 -5 35
-20 22 -40 26 -51 9z"/>
<path d="M2608 3011 c-26 -26 -22 -31 20 -31 45 1 139 25 126 32 -5 3 -36 8
-69 11 -50 5 -63 3 -77 -12z"/>
<path d="M2795 2990 c3 -5 12 -7 20 -3 21 7 19 13 -6 13 -11 0 -18 -4 -14 -10z"/>
<path d="M1779 1248 c-13 -49 -84 -296 -94 -327 -6 -19 -3 -21 38 -21 l44 0
13 55 13 56 41 -3 c40 -3 41 -4 55 -55 l14 -53 53 0 c30 0 54 3 54 8 0 4 -23
91 -52 194 l-53 188 -57 0 -57 0 -12 -42z m70 -160 c1 -11 -6 -18 -18 -18 -17
0 -18 3 -8 36 9 30 12 33 18 18 4 -11 8 -27 8 -36z"/>
<path d="M2370 1095 l0 -195 90 0 c107 0 151 15 180 62 29 48 27 119 -4 149
-22 22 -23 25 -9 54 19 40 5 78 -39 105 -27 16 -51 20 -125 20 l-93 0 0 -195z
m158 123 c18 -18 14 -46 -7 -58 -33 -17 -41 -11 -41 30 0 32 4 40 18 40 10 0
23 -5 30 -12z m4 -145 c36 -32 12 -113 -34 -113 -16 0 -18 8 -18 65 0 54 3 65
17 65 9 0 25 -7 35 -17z"/>
<path d="M3025 1278 c-2 -7 -5 -25 -8 -40 -4 -27 -3 -28 44 -28 l49 0 0 -155
0 -155 55 0 55 0 0 155 0 155 51 0 c48 0 51 1 45 23 -3 12 -6 30 -6 40 0 15
-13 17 -140 17 -104 0 -142 -3 -145 -12z"/>
<path d="M675 588 c-16 -46 -30 -89 -33 -95 -2 -7 1 -13 6 -13 6 0 14 9 17 20
5 16 15 20 47 20 31 0 41 -4 45 -20 5 -19 23 -29 23 -12 0 22 -58 176 -67 179
-6 2 -23 -33 -38 -79z m53 3 c17 -55 15 -61 -18 -61 -16 0 -30 3 -30 6 0 19
24 94 30 94 4 0 12 -17 18 -39z"/>
<path d="M1050 576 c0 -104 17 -133 22 -38 3 53 5 57 28 57 23 0 25 -4 28 -57
4 -76 22 -75 22 2 0 49 -3 61 -20 70 -12 6 -30 8 -40 5 -16 -5 -20 -2 -20 19
0 14 -4 28 -10 31 -6 4 -10 -28 -10 -89z"/>
<path d="M1196 663 c-11 -11 -6 -23 9 -23 8 0 15 4 15 9 0 13 -16 22 -24 14z"/>
<path d="M1550 575 c0 -62 4 -94 10 -90 6 3 10 44 10 90 0 46 -4 87 -10 90 -6
4 -10 -28 -10 -90z"/>
<path d="M2090 575 l0 -95 41 0 c56 0 79 14 79 50 0 16 -4 31 -9 34 -5 4 -4
19 2 37 11 28 10 33 -12 50 -14 11 -39 19 -62 19 l-39 0 0 -95z m99 51 c4 -23
-24 -46 -56 -46 -20 0 -23 5 -23 36 0 35 1 35 37 32 28 -2 39 -8 42 -22z m-11
-65 c8 -4 12 -19 10 -32 -2 -20 -10 -25 -40 -27 -37 -3 -38 -3 -38 32 0 33 3
36 28 36 15 0 33 -4 40 -9z"/>
<path d="M2717 663 c-4 -3 -7 -17 -7 -30 0 -20 -4 -23 -21 -18 -33 11 -59 -21
-59 -70 0 -51 14 -65 63 -63 l37 1 0 94 c0 93 -1 99 -13 86z m-9 -106 c4 -48
-12 -71 -39 -56 -14 7 -19 21 -19 48 0 44 6 53 35 49 15 -2 21 -12 23 -41z"/>
<path d="M3276 662 c-3 -6 -1 -14 5 -17 15 -10 25 3 12 16 -7 7 -13 7 -17 1z"/>
<path d="M3670 660 c0 -5 13 -10 30 -10 l29 0 4 -87 3 -88 2 88 2 87 30 0 c17
0 30 5 30 10 0 6 -28 10 -65 10 -37 0 -65 -4 -65 -10z"/>
<path d="M3836 663 c-11 -11 -6 -23 9 -23 8 0 15 4 15 9 0 13 -16 22 -24 14z"/>
<path d="M3183 625 c-6 -14 -7 -25 -2 -25 5 0 9 -24 9 -54 0 -40 4 -55 16 -60
23 -9 34 -7 34 4 0 6 -7 10 -15 10 -23 0 -21 97 3 103 16 4 16 5 0 6 -11 1
-18 9 -18 21 0 27 -13 25 -27 -5z"/>
<path d="M851 611 c-8 -5 -20 -7 -28 -4 -10 4 -13 -10 -13 -61 0 -37 4 -66 10
-66 6 0 10 20 10 44 0 42 18 76 41 76 5 0 9 5 9 10 0 12 -10 13 -29 1z"/>
<path d="M932 604 c-27 -18 -31 -84 -6 -108 20 -20 58 -21 74 -1 18 22 5 31
-15 11 -13 -12 -21 -14 -36 -5 -16 8 -19 19 -17 52 3 48 27 60 59 31 17 -15
19 -15 19 -1 0 15 -28 37 -47 37 -5 0 -19 -7 -31 -16z"/>
<path d="M1295 610 c-3 -5 -12 -7 -20 -3 -13 4 -15 -10 -15 -86 0 -54 4 -91
10 -91 6 0 10 13 10 28 0 26 3 28 29 24 40 -6 66 33 57 83 -8 43 -54 72 -71
45z m45 -29 c14 -28 12 -57 -6 -75 -24 -24 -54 -4 -54 37 0 53 39 77 60 38z"/>
<path d="M1422 604 c-27 -18 -31 -84 -6 -108 17 -18 51 -21 74 -6 20 13 5 24
-16 12 -22 -12 -54 2 -54 23 0 11 12 15 45 15 38 0 45 3 45 20 0 22 -33 60
-53 60 -7 0 -23 -7 -35 -16z m56 -16 c20 -20 14 -28 -23 -28 -22 0 -35 5 -35
13 0 28 36 37 58 15z"/>
<path d="M1624 606 c-11 -8 -15 -18 -10 -23 5 -4 11 -2 13 5 4 11 53 18 53 8
0 -2 3 -11 6 -20 5 -12 0 -16 -21 -16 -36 0 -65 -17 -65 -39 0 -28 22 -40 68
-38 l42 1 0 48 c0 72 -41 107 -86 74z m66 -81 c0 -19 -34 -37 -55 -29 -23 9
-14 37 15 44 30 8 40 4 40 -15z"/>
<path d="M1762 605 c-16 -12 -22 -26 -22 -55 0 -49 23 -74 62 -66 42 8 34 -20
-12 -41 l-25 -12 27 0 c41 -1 58 31 58 111 0 60 -2 68 -19 68 -11 0 -25 2 -33
5 -7 3 -23 -2 -36 -10z m56 -17 c14 -14 16 -57 3 -76 -4 -8 -19 -12 -32 -10
-19 2 -25 10 -27 36 -5 50 27 79 56 50z"/>
<path d="M1910 602 c-18 -15 -24 -29 -23 -56 1 -48 19 -68 57 -64 42 4 62 44
46 93 -6 19 -15 35 -20 35 -5 0 -15 2 -23 5 -7 3 -24 -3 -37 -13z m60 -21 c23
-44 0 -94 -39 -84 -24 6 -37 54 -21 82 14 26 46 27 60 2z"/>
<path d="M2291 611 c-8 -5 -20 -7 -28 -4 -10 4 -13 -10 -13 -61 0 -37 4 -66
10 -66 6 0 10 20 10 44 0 42 18 76 41 76 5 0 9 5 9 10 0 12 -10 13 -29 1z"/>
<path d="M2372 604 c-16 -11 -22 -25 -22 -54 0 -44 20 -70 55 -70 50 0 73 82
35 120 -24 24 -38 25 -68 4z m56 -16 c17 -17 15 -64 -4 -82 -26 -26 -54 -4
-54 43 0 21 3 41 7 44 10 11 38 8 51 -5z"/>
<path d="M2509 600 c-26 -21 -20 -27 10 -8 22 14 51 4 51 -17 0 -10 -10 -15
-29 -15 -34 0 -54 -20 -49 -52 3 -20 9 -23 51 -24 l47 -2 0 59 c0 47 -4 60
-19 69 -27 14 -35 13 -62 -10z m61 -80 c0 -18 -25 -30 -47 -23 -19 7 -16 41 5
45 26 6 42 -2 42 -22z"/>
<path d="M2790 600 c-40 -40 -14 -120 39 -120 16 0 34 7 41 15 19 23 5 29 -23
10 -23 -15 -26 -15 -41 0 -19 19 -21 66 -4 83 17 17 45 15 57 -5 5 -10 13 -14
18 -10 9 10 -33 47 -53 47 -8 0 -23 -9 -34 -20z"/>
<path d="M2929 600 c-26 -21 -20 -27 10 -8 22 14 51 4 51 -17 0 -10 -10 -15
-29 -15 -34 0 -54 -20 -49 -52 3 -20 9 -23 51 -24 l47 -2 0 59 c0 47 -4 60
-19 69 -27 14 -35 13 -62 -10z m61 -79 c0 -19 -25 -31 -47 -24 -22 8 -15 41
10 45 29 5 37 1 37 -21z"/>
<path d="M3068 609 c-30 -17 -22 -47 18 -66 40 -20 45 -32 21 -47 -12 -7 -21
-5 -36 8 -19 17 -21 17 -21 3 0 -19 39 -32 70 -22 35 11 23 57 -17 69 -41 11
-47 46 -9 46 13 0 26 -6 29 -12 2 -7 8 -9 13 -5 5 5 1 15 -10 23 -23 16 -35
17 -58 3z"/>
<path d="M3375 610 c-3 -5 -12 -7 -20 -3 -12 4 -15 -7 -15 -61 0 -37 4 -66 10
-66 6 0 10 24 10 54 0 46 3 56 20 61 31 10 40 -2 40 -55 0 -27 5 -52 10 -55 6
-4 10 16 10 54 0 49 -4 62 -19 71 -24 13 -38 13 -46 0z"/>
<path d="M3501 601 c-45 -45 -14 -130 44 -119 37 8 32 -19 -7 -36 -32 -14 -32
-14 -7 -15 44 -2 59 26 59 107 0 51 -4 72 -12 72 -7 0 -23 3 -35 6 -14 4 -28
-1 -42 -15z m58 -15 c7 -8 11 -30 9 -48 -2 -26 -8 -34 -27 -36 -27 -4 -41 12
-41 49 0 43 35 64 59 35z"/>
<path d="M3923 613 c-21 -4 -23 -10 -23 -69 0 -79 18 -85 22 -7 2 47 6 58 22
61 26 5 36 -15 36 -70 0 -68 18 -60 22 10 3 53 5 57 28 57 23 0 25 -4 28 -57
4 -73 22 -76 22 -4 0 63 -20 92 -54 81 -25 -8 -34 -8 -61 -2 -11 3 -30 3 -42
0z"/>
<path d="M4136 604 c-22 -22 -24 -86 -4 -111 15 -19 63 -16 79 4 15 18 15 18
-35 -3 -14 -5 -46 20 -46 37 0 5 20 9 45 9 41 0 45 2 45 24 0 24 -32 56 -57
56 -6 0 -19 -7 -27 -16z m62 -26 c3 -15 -4 -18 -33 -18 -33 0 -35 2 -25 21 14
24 53 22 58 -3z"/>
<path d="M4278 609 c-30 -17 -22 -47 18 -66 40 -20 45 -32 21 -47 -12 -7 -21
-5 -36 8 -19 17 -21 17 -21 3 0 -19 39 -32 70 -22 35 11 23 57 -17 69 -41 11
-47 46 -9 46 13 0 26 -6 29 -12 2 -7 8 -9 13 -5 5 5 1 15 -10 23 -23 16 -35
17 -58 3z"/>
<path d="M1203 545 c0 -38 2 -53 4 -32 2 20 2 52 0 70 -2 17 -4 1 -4 -38z"/>
<path d="M3280 545 c0 -37 4 -65 10 -65 6 0 10 28 10 65 0 37 -4 65 -10 65 -6
0 -10 -28 -10 -65z"/>
<path d="M3843 545 c0 -38 2 -53 4 -32 2 20 2 52 0 70 -2 17 -4 1 -4 -38z"/>
</g>
</svg>
